HIERARCHY
ROOT Hips
{
 OFFSET 0.000000 0.000000 0.000000
 CHANNELS 6 Xposition Yposition Zposition Yrotation Xrotation Zrotation
 JOINT Chest
 {
  OFFSET 0.000000 11.395451 -0.039534
  CHANNELS 3 Yrotation Xrotation Zrotation
  JOINT Chest2
  {
   OFFSET 0.000000 9.398669 0.071813
   CHANNELS 3 Yrotation Xrotation Zrotation
   JOINT Chest3
   {
    OFFSET 0.000000 8.489801 0.000000
    CHANNELS 3 Yrotation Xrotation Zrotation
    JOINT Chest4
    {
     OFFSET 0.000000 8.489801 0.000000
     CHANNELS 3 Yrotation Xrotation Zrotation
     JOINT Neck
     {
      OFFSET 0.000000 12.404889 0.000000
      CHANNELS 3 Yrotation Xrotation Zrotation
      JOINT Head
      {
       OFFSET 0.000000 8.903270 0.092239
       CHANNELS 3 Yrotation Xrotation Zrotation
       End Site
       {
        OFFSET 0.000000 17.592497 0.007158
       }
      }
     }
     JOINT RightCollar
     {
      OFFSET -3.196775 6.966722 0.000000
      CHANNELS 3 Yrotation Xrotation Zrotation
      JOINT RightShoulder
      {
       OFFSET -15.955896 0.000000 0.000000
       CHANNELS 3 Yrotation Xrotation Zrotation
       JOINT RightElbow
       {
        OFFSET -24.792472 0.000000 0.000000
        CHANNELS 3 Yrotation Xrotation Zrotation
        JOINT RightWrist
        {
         OFFSET -20.900115 0.000000 0.025002
         CHANNELS 3 Yrotation Xrotation Zrotation
         End Site
         {
          OFFSET -16.056692 0.000000 0.000000
         }
        }
       }
      }
     }
     JOINT LeftCollar
     {
      OFFSET 3.196775 6.966722 0.000000
      CHANNELS 3 Yrotation Xrotation Zrotation
      JOINT LeftShoulder
      {
       OFFSET 15.955896 0.000000 0.000000
       CHANNELS 3 Yrotation Xrotation Zrotation
       JOINT LeftElbow
       {
        OFFSET 24.792472 0.000000 0.000000
        CHANNELS 3 Yrotation Xrotation Zrotation
        JOINT LeftWrist
        {
         OFFSET 20.900115 0.000000 0.025002
         CHANNELS 3 Yrotation Xrotation Zrotation
         End Site
         {
          OFFSET 16.056692 0.000000 0.000000
         }
        }
       }
      }
     }
    }
   }
  }
 }
 JOINT RightHip
 {
  OFFSET -9.568995 0.193718 0.019767
  CHANNELS 3 Yrotation Xrotation Zrotation
  JOINT RightKnee
  {
   OFFSET 0.000000 -56.649296 0.015402
   CHANNELS 3 Yrotation Xrotation Zrotation
   JOINT RightAnkle
   {
    OFFSET 0.000000 -41.365147 0.021264
    CHANNELS 3 Yrotation Xrotation Zrotation
    JOINT RightToe
    {
     OFFSET 0.000000 -7.465940 17.672538
     CHANNELS 3 Yrotation Xrotation Zrotation
     End Site
     {
      OFFSET 0.000000 -1.736315 7.837145
     }
    }
   }
  }
 }
 JOINT LeftHip
 {
  OFFSET 9.568995 0.193718 0.019767
  CHANNELS 3 Yrotation Xrotation Zrotation
  JOINT LeftKnee
  {
   OFFSET 0.000000 -56.649296 0.015402
   CHANNELS 3 Yrotation Xrotation Zrotation
   JOINT LeftAnkle
   {
    OFFSET 0.000000 -41.365147 0.021264
    CHANNELS 3 Yrotation Xrotation Zrotation
    JOINT LeftToe
    {
     OFFSET 0.000000 -7.465940 17.672538
     CHANNELS 3 Yrotation Xrotation Zrotation
     End Site
     {
      OFFSET 0.000000 -1.736315 7.837145
     }
    }
   }
  }
 }
}
MOTION
Frames: 10
Frame Time: 0.016667
-63.479840 106.631722 254.578358 -169.380942 -7.951432 -0.594976 -0.618711 4.279935 -0.644768 -0.268835 1.903049 -0.280648 -0.268835 1.903049 -0.280648 -0.200733 1.427411 -0.209629 4.986395 18.267224 0.142654 9.119672 -2.124317 -1.379592 -1.157629 8.509310 9.764743 6.025554 -16.306458 75.124806 -0.407707 10.500868 -0.931721 -0.136021 0.107466 3.460080 -3.367152 10.295369 -6.663884 -5.079949 -15.416578 -73.345470 -1.136185 7.449418 1.191345 3.073612 -1.853566 -5.867799 1.437086 13.070518 -0.884043 0.924398 1.767460 -0.554224 1.466617 -6.364548 1.787086 0.000000 0.000000 0.000000 -4.181844 12.726515 -1.426534 0.008455 -0.592545 -0.132463 -1.878714 -4.804554 0.892290 0.000000 0.000000 0.000000
-63.449555 106.615565 254.667035 -169.280379 -7.833802 -0.514632 -0.605802 4.249596 -0.625989 -0.263317 1.889524 -0.272468 -0.263317 1.889525 -0.272468 -0.196626 1.417262 -0.203518 4.975781 18.297040 0.164402 9.091686 -2.071266 -1.334169 -1.206610 8.477973 9.717573 6.032962 -16.232187 75.149917 -0.662939 10.404416 -1.114693 -0.119311 0.118375 3.433130 -3.345879 10.249597 -6.675827 -5.038365 -15.312803 -73.511924 -1.355676 7.501230 1.093405 3.062703 -1.828581 -5.870579 1.482660 13.005997 -0.946167 0.990332 1.591608 -0.548352 1.256872 -6.314160 1.783211 0.000000 0.000000 0.000000 -3.960726 12.528051 -1.497380 -0.182707 -0.561202 0.009052 -1.992960 -4.778375 0.820431 0.000000 0.000000 0.000000
-63.419270 106.599409 254.755711 -169.179678 -7.716313 -0.434103 -0.592821 4.219238 -0.607295 -0.257767 1.875990 -0.264327 -0.257766 1.875991 -0.264326 -0.192495 1.407105 -0.197435 4.965160 18.326772 0.186241 9.063687 -2.018371 -1.288595 -1.255548 8.446633 9.670390 6.040309 -16.157951 75.175166 -0.917867 10.306507 -1.296552 -0.102618 0.129141 3.406116 -3.324549 10.203905 -6.687928 -4.997307 -15.208400 -73.677871 -1.575027 7.553063 0.994790 3.051858 -1.803574 -5.873415 1.528229 12.941731 -1.008565 1.056234 1.415735 -0.543245 1.047187 -6.263757 1.778870 0.000000 0.000000 0.000000 -3.739569 12.330334 -1.569831 -0.373966 -0.530014 0.150363 -2.107209 -4.752346 0.748481 0.000000 0.000000 0.000000
-63.386113 106.586622 254.841229 -169.087936 -7.601733 -0.358628 -0.576993 4.189553 -0.588413 -0.250950 1.862752 -0.256125 -0.250950 1.862752 -0.256125 -0.187415 1.397170 -0.191312 4.953505 18.357324 0.210512 9.032984 -1.964173 -1.238188 -1.302853 8.419459 9.624198 6.051945 -16.094488 75.195939 -1.145609 10.203609 -1.464748 -0.086416 0.136777 3.379103 -3.307747 10.153856 -6.702089 -4.952961 -15.099141 -73.831872 -1.775543 7.602060 0.903472 3.035151 -1.787531 -5.870148 1.557564 12.875045 -1.065558 1.091939 1.245485 -0.543438 0.890218 -6.212968 1.772670 0.000000 0.000000 0.000000 -3.532131 12.142574 -1.633461 -0.543623 -0.503229 0.277341 -2.217366 -4.722690 0.678653 0.000000 0.000000 0.000000
-63.348382 106.579149 254.922973 -169.009493 -7.490331 -0.291299 -0.555972 4.161034 -0.568979 -0.241826 1.850028 -0.247720 -0.241826 1.850028 -0.247720 -0.180604 1.387620 -0.185042 4.939355 18.389380 0.240427 8.995817 -1.907713 -1.176545 -1.348873 8.398145 9.579793 6.070212 -16.046413 75.210349 -1.337889 10.092363 -1.617326 -0.070003 0.139392 3.350979 -3.299072 10.095865 -6.721007 -4.904810 -14.980099 -73.968524 -1.955421 7.641948 0.820089 3.006601 -1.788305 -5.855629 1.570287 12.804097 -1.110713 1.073452 1.080243 -0.552973 0.811942 -6.158973 1.764154 0.000000 0.000000 0.000000 -3.342354 11.968251 -1.682441 -0.678134 -0.483285 0.384770 -2.326029 -4.687103 0.613231 0.000000 0.000000 0.000000
-63.307779 106.575047 255.001558 -168.940048 -7.381774 -0.229092 -0.532119 4.133201 -0.549360 -0.231443 1.837606 -0.239254 -0.231443 1.837606 -0.239254 -0.172848 1.378296 -0.178729 4.924189 18.422232 0.272780 8.955986 -1.849983 -1.110078 -1.393297 8.381004 9.536398 6.092797 -16.009076 75.220205 -1.503012 9.976861 -1.756563 -0.054072 0.138922 3.322917 -3.294905 10.033501 -6.741986 -4.853288 -14.856383 -74.093205 -2.116497 7.679017 0.744262 2.972066 -1.797987 -5.835005 1.566837 12.730523 -1.150273 1.024879 0.920635 -0.567108 0.786338 -6.104604 1.754190 0.000000 0.000000 0.000000 -3.166347 11.803496 -1.722069 -0.791010 -0.467765 0.477990 -2.430640 -4.647835 0.549969 0.000000 -0.000000 -0.000000
-63.266546 106.571849 255.075671 -168.875744 -7.277911 -0.168094 -0.509723 4.105282 -0.530374 -0.221699 1.825150 -0.231054 -0.221699 1.825150 -0.231054 -0.165570 1.368947 -0.172614 4.911374 18.454728 0.300275 8.922110 -1.792410 -1.053338 -1.433557 8.367136 9.492654 6.117076 -15.979301 75.226418 -1.639023 9.865104 -1.876500 -0.041193 0.138164 3.298428 -3.289005 9.973037 -6.758835 -4.795956 -14.738854 -74.210696 -2.245587 7.729251 0.682595 2.943414 -1.801959 -5.817542 1.532239 12.656755 -1.197420 0.988184 0.774203 -0.577068 0.788063 -6.057979 1.743479 0.000000 0.000000 0.000000 -3.006114 11.646376 -1.758374 -0.901114 -0.453585 0.558717 -2.519371 -4.607891 0.484300 0.000000 0.000000 0.000000
-63.224975 106.568990 255.144866 -168.822841 -7.178270 -0.105864 -0.487357 4.076576 -0.512653 -0.211956 1.812348 -0.223414 -0.211956 1.812348 -0.223414 -0.158291 1.359339 -0.166918 4.902191 18.487132 0.321287 8.897060 -1.734326 -1.009693 -1.468238 8.357782 9.447747 6.145043 -15.957381 75.228389 -1.745459 9.755391 -1.975681 -0.033379 0.138680 3.279250 -3.278393 9.913555 -6.769306 -4.723473 -14.628463 -74.324611 -2.339432 7.805777 0.636110 2.923789 -1.795488 -5.804129 1.452181 12.578568 -1.260760 0.973597 0.649852 -0.579027 0.830296 -6.026204 1.732052 0.000000 0.000000 -0.000000 -2.862227 11.495979 -1.792916 -1.014505 -0.440975 0.624622 -2.581930 -4.566679 0.411650 0.000000 -0.000000 -0.000000
-63.182774 106.567036 255.209588 -168.775089 -7.083300 -0.044893 -0.466454 4.047791 -0.495544 -0.202855 1.799515 -0.216029 -0.202855 1.799515 -0.216029 -0.151492 1.349708 -0.161411 4.895332 18.519242 0.337410 8.877910 -1.676299 -0.975798 -1.498771 8.351717 9.402491 6.174719 -15.943001 75.226668 -1.822901 9.649924 -2.056023 -0.028613 0.138979 3.263647 -3.266055 9.855943 -6.775618 -4.645097 -14.524270 -74.431401 -2.401391 7.895451 0.604126 2.910102 -1.783388 -5.793828 1.341058 12.499943 -1.331331 0.970824 0.538687 -0.576649 0.899837 -6.002155 1.720054 0.000000 -0.000000 -0.000000 -2.734076 11.353076 -1.823738 -1.125094 -0.429590 0.678032 -2.628611 -4.524710 0.336635 0.000000 -0.000000 0.000000
-63.141303 106.565220 255.269858 -168.709889 -6.996281 0.011401 -0.455588 4.020240 -0.477904 -0.198213 1.787241 -0.208318 -0.198213 1.787241 -0.208318 -0.148038 1.340499 -0.155646 4.890257 18.549245 0.346163 8.864538 -1.621556 -0.956143 -1.526834 8.344342 9.357960 6.197507 -15.932093 75.223923 -1.871029 9.562529 -2.116730 -0.023427 0.137286 3.249899 -3.254732 9.809177 -6.778228 -4.586218 -14.434384 -74.525304 -2.428225 7.974831 0.590751 2.904941 -1.765395 -5.793132 1.226873 12.435745 -1.396103 0.990993 0.421579 -0.572731 0.931785 -5.972617 1.708110 0.000000 0.000000 0.000000 -2.621871 11.218345 -1.851688 -1.233530 -0.415480 0.727612 -2.678448 -4.486664 0.268454 0.000000 0.000000 0.000000
